<svg xmlns="http://www.w3.org/2000/svg" xmlns:xlink="http://www.w3.org/1999/xlink" width="500" zoomAndPan="magnify" viewBox="0 0 375 374.999991" height="500" preserveAspectRatio="xMidYMid meet" version="1.0"><defs><g/><clipPath id="ba35fc91db"><path d="M 138 10.65625 L 243 10.65625 L 243 234.15625 L 138 234.15625 Z M 138 10.65625 " clip-rule="nonzero"/></clipPath></defs><rect x="-37.5" width="450" fill="#ffffff" y="-37.499999" height="449.999989" fill-opacity="1"/><rect x="-37.5" width="450" fill="#ffffff" y="-37.499999" height="449.999989" fill-opacity="1"/><g clip-path="url(#ba35fc91db)"><path fill="#2e2e2e" d="M 215.914062 234.238281 C 248.46875 194.394531 231.878906 148.339844 165.875 96.066406 C 211.710938 121.730469 237.199219 149.722656 242.253906 179.953125 C 246.320312 148.160156 224.902344 113.773438 182.464844 86.226562 C 127.957031 56.445312 126.527344 134.746094 166.949219 171.726562 C 185.910156 188.941406 215.691406 203.875 215.914062 234.238281 Z M 221.863281 36.726562 L 221.636719 36.59375 L 221.503906 36.457031 L 221.28125 36.324219 L 220.207031 35.25 L 220.074219 35.25 L 219.847656 35.117188 L 219.847656 34.980469 L 219.625 34.847656 L 219.179688 34.402344 L 218.820312 34.265625 L 218.820312 34.132812 L 218.597656 34 L 218.375 33.773438 L 218.238281 33.773438 L 218.015625 33.640625 L 218.015625 33.507812 L 217.792969 33.371094 L 217.570312 33.148438 L 217.433594 33.148438 L 217.210938 33.015625 L 217.210938 32.878906 L 216.988281 32.746094 L 216.851562 32.746094 L 216.71875 32.613281 L 216.585938 32.476562 L 216.363281 32.34375 C 216.226562 32.210938 216.046875 32.121094 215.824219 31.984375 L 215.601562 31.851562 L 215.378906 31.628906 L 215.242188 31.628906 L 215.019531 31.496094 L 214.617188 31.136719 L 214.484375 31.136719 L 214.347656 31.003906 L 214.214844 30.867188 L 213.902344 30.734375 L 213.945312 30.734375 L 213.8125 30.601562 L 213.679688 30.464844 L 213.453125 30.332031 L 213.320312 30.332031 L 213.1875 30.199219 C 212.875 30.0625 212.648438 29.972656 212.335938 29.796875 L 212.203125 29.796875 L 212.070312 29.660156 L 211.84375 29.660156 L 211.710938 29.527344 L 211.175781 29.304688 L 210.949219 29.167969 L 210.726562 29.035156 L 210.59375 29.035156 L 210.371094 28.902344 L 210.234375 28.765625 L 210.101562 28.765625 L 209.878906 28.632812 L 209.921875 28.632812 L 209.789062 28.5 L 209.566406 28.5 L 209.429688 28.363281 L 209.207031 28.363281 L 209.074219 28.230469 L 208.847656 28.230469 L 208.847656 28.097656 L 208.625 28.097656 L 208.269531 27.960938 L 208.132812 27.960938 L 208.132812 27.828125 L 207.910156 27.828125 L 207.597656 27.695312 L 207.375 27.558594 L 207.238281 27.558594 L 207.015625 27.425781 L 206.703125 27.425781 L 206.703125 27.292969 L 206.390625 27.292969 L 206.167969 27.15625 L 206.03125 27.15625 L 205.808594 27.023438 L 205.675781 27.023438 L 205.449219 26.886719 L 205.09375 26.886719 L 204.46875 26.621094 L 204.242188 26.621094 L 203.886719 26.484375 C 195.121094 24.5625 187.296875 18.570312 182.152344 10.65625 C 180.453125 17.183594 181.796875 24.027344 185.777344 29.394531 L 186.757812 29.527344 L 187.742188 29.660156 L 188.726562 29.660156 L 189.488281 29.796875 L 189.621094 29.796875 L 190.472656 29.929688 L 191.5 29.929688 L 192.257812 30.0625 L 192.394531 30.0625 L 193.152344 30.199219 L 194.136719 30.199219 L 194.761719 30.332031 L 194.988281 30.332031 L 195.613281 30.464844 L 195.835938 30.464844 L 196.375 30.601562 L 197.132812 30.601562 L 197.492188 30.734375 L 198.25 30.734375 L 198.789062 30.867188 L 199.414062 31.003906 L 200.308594 31.003906 L 200.308594 31.136719 L 201.605469 31.269531 L 202.050781 31.269531 L 202.453125 31.40625 L 202.8125 31.40625 L 203.125 31.539062 L 203.4375 31.539062 L 203.796875 31.671875 L 204.46875 31.671875 L 204.601562 31.808594 L 205.273438 31.808594 L 205.585938 31.941406 L 206.121094 32.074219 L 206.570312 32.074219 L 207.105469 32.210938 L 207.238281 32.210938 L 207.777344 32.34375 L 208.179688 32.476562 L 208.402344 32.476562 L 208.714844 32.613281 L 208.9375 32.613281 L 209.339844 32.746094 L 209.476562 32.746094 L 209.878906 32.878906 L 210.101562 32.878906 L 210.414062 33.015625 L 210.773438 33.015625 Z M 238.71875 57.386719 L 238.71875 57.25 C 238.585938 56.847656 238.40625 56.492188 238.316406 56.179688 C 238.183594 55.820312 238.09375 55.550781 238.003906 55.195312 L 237.78125 54.792969 C 237.648438 54.433594 237.558594 54.253906 237.46875 54.03125 C 234.25 47.503906 228.570312 42.359375 221.414062 40.078125 C 220.027344 40.078125 218.597656 39.945312 217.210938 39.855469 C 205.136719 36.546875 190.335938 36.101562 178.441406 33.550781 C 164.3125 29.078125 157.15625 22.460938 156.933594 13.699219 C 156.933594 13.339844 156.933594 13.070312 156.933594 12.714844 C 156.710938 13.339844 156.398438 13.964844 156.171875 14.636719 C 151.253906 28.230469 155.101562 36.996094 162.925781 43.476562 C 168.292969 48.21875 175.894531 52.242188 186.042969 55.550781 C 187.5625 55.953125 189.128906 56.402344 190.648438 56.847656 C 199.414062 60.066406 207.867188 63.289062 213.679688 67.445312 C 219.894531 72.363281 222.265625 77.953125 220.878906 84.394531 C 220.742188 84.796875 220.65625 85.242188 220.566406 85.691406 C 228.613281 91.191406 232.996094 95.214844 233.53125 97.765625 L 233.667969 97.539062 L 234.113281 97.09375 L 234.25 96.871094 L 234.382812 96.644531 L 234.605469 96.289062 L 234.738281 96.066406 L 234.964844 95.839844 L 235.230469 95.394531 L 235.367188 95.171875 L 235.5 94.8125 L 235.632812 94.589844 L 235.859375 94.367188 L 235.992188 94.140625 L 235.992188 93.785156 L 236.125 93.5625 L 236.261719 93.335938 L 236.394531 92.980469 L 236.527344 92.757812 L 236.664062 92.53125 L 236.664062 92.175781 L 236.796875 91.949219 L 236.796875 91.59375 L 236.929688 91.371094 L 236.929688 91.144531 L 237.066406 90.789062 L 237.066406 90.207031 L 237.199219 89.984375 L 237.199219 86.988281 L 237.066406 86.628906 L 237.066406 86.046875 L 236.929688 85.824219 L 236.929688 85.601562 L 236.796875 85.242188 L 236.796875 85.019531 L 236.664062 84.664062 L 236.527344 84.4375 L 236.527344 84.214844 L 236.394531 83.855469 L 236.261719 83.632812 L 236.125 83.410156 L 235.992188 83.050781 L 235.859375 82.828125 L 235.722656 82.605469 L 235.589844 82.246094 L 235.457031 82.023438 L 235.320312 81.800781 L 235.1875 81.441406 L 234.964844 81.21875 L 234.828125 80.996094 L 234.695312 80.773438 L 235.140625 80.054688 C 240.0625 73.214844 241.449219 64.539062 238.988281 56.492188 Z M 193.914062 69.371094 C 195.613281 68.296875 197.757812 68.207031 199.683594 69.011719 L 199.414062 69.011719 L 199.414062 69.144531 L 198.339844 69.144531 L 198.207031 69.28125 L 197.804688 69.28125 L 197.804688 69.414062 L 197.402344 69.414062 L 197.402344 69.546875 L 197.132812 69.546875 L 197 69.683594 L 196.730469 69.683594 L 196.597656 69.816406 L 196.953125 69.816406 L 196.953125 69.949219 L 196.820312 69.949219 L 196.6875 70.085938 L 196.550781 70.085938 L 196.550781 70.21875 L 196.375 70.21875 L 196.375 70.351562 L 196.238281 70.488281 L 196.105469 70.488281 L 195.972656 70.621094 L 195.835938 70.621094 L 195.835938 70.753906 L 195.703125 70.890625 L 195.570312 70.890625 L 195.570312 71.023438 L 195.613281 71.023438 L 195.613281 71.15625 L 195.480469 71.15625 L 195.480469 71.292969 L 195.34375 71.292969 L 195.34375 71.425781 L 195.210938 71.558594 L 195.078125 71.695312 L 194.941406 71.828125 L 194.941406 71.960938 L 194.808594 72.097656 L 194.675781 72.230469 L 194.675781 72.367188 L 194.71875 72.367188 L 194.71875 72.632812 L 194.628906 72.632812 L 194.628906 72.769531 L 194.496094 72.902344 L 194.496094 73.171875 L 194.359375 73.304688 C 193.511719 75.449219 194.046875 78.042969 195.882812 79.519531 C 197.714844 81.128906 200.265625 81.351562 202.320312 80.054688 C 204.378906 78.671875 206.925781 78.445312 209.164062 79.296875 C 205.183594 68.609375 194.808594 61.722656 183.449219 62.347656 C 187.519531 65.34375 190.203125 70.039062 190.738281 75.09375 C 191.050781 72.277344 192.257812 70.441406 193.914062 69.371094 Z M 221.863281 36.726562 L 222.085938 36.949219 C 221.953125 36.949219 221.863281 36.816406 221.773438 36.726562 L 221.636719 36.59375 L 221.503906 36.59375 L 221.503906 36.457031 L 221.28125 36.324219 L 221.144531 36.191406 L 221.101562 36.144531 L 220.96875 36.144531 L 220.832031 36.011719 L 220.699219 35.875 L 220.476562 35.742188 L 220.339844 35.742188 L 220.207031 35.609375 L 220.074219 35.472656 L 219.9375 35.472656 L 219.714844 35.339844 L 219.761719 35.339844 L 219.535156 35.207031 L 219.535156 35.25 L 219.3125 35.117188 L 219.179688 35.117188 L 218.957031 34.980469 L 218.867188 34.980469 L 218.730469 34.847656 L 218.507812 34.714844 L 218.417969 34.714844 L 218.105469 34.578125 L 217.882812 34.445312 L 217.925781 34.445312 L 217.613281 34.3125 L 217.300781 34.175781 L 217.167969 34.042969 L 216.808594 33.910156 L 216.40625 33.773438 L 216.003906 33.640625 L 215.691406 33.507812 L 215.289062 33.371094 L 215.15625 33.371094 L 214.75 33.238281 L 214.347656 33.015625 L 213.945312 32.878906 L 213.8125 32.878906 L 213.5 32.746094 L 213.367188 32.746094 L 212.964844 32.613281 L 212.828125 32.613281 L 212.425781 32.476562 L 212.292969 32.476562 L 211.933594 32.34375 Z M 221.863281 36.726562 " fill-opacity="1" fill-rule="evenodd"/></g><g fill="#2e2e2e" fill-opacity="1"><g transform="translate(112.99538, 287.999389)"><g><path d="M 34.875 0 L 25.59375 0 L 10.625 -26.046875 L 10.40625 -26.046875 C 10.46875 -24.960938 10.519531 -23.867188 10.5625 -22.765625 C 10.613281 -21.671875 10.660156 -20.578125 10.703125 -19.484375 C 10.753906 -18.398438 10.804688 -17.304688 10.859375 -16.203125 L 10.859375 0 L 4.328125 0 L 4.328125 -34.4375 L 13.546875 -34.4375 L 28.5 -8.640625 L 28.65625 -8.640625 C 28.625 -9.710938 28.582031 -10.773438 28.53125 -11.828125 C 28.488281 -12.878906 28.445312 -13.929688 28.40625 -14.984375 C 28.375 -16.035156 28.34375 -17.085938 28.3125 -18.140625 L 28.3125 -34.4375 L 34.875 -34.4375 Z M 34.875 0 "/></g></g></g><g fill="#2e2e2e" fill-opacity="1"><g transform="translate(152.692962, 287.999389)"><g><path d="M 4.328125 0 L 4.328125 -34.4375 L 11.640625 -34.4375 L 11.640625 0 Z M 4.328125 0 "/></g></g></g><g fill="#2e2e2e" fill-opacity="1"><g transform="translate(169.144093, 287.999389)"><g><path d="M 31.34375 -34.4375 L 19.640625 0 L 11.6875 0 L 0 -34.4375 L 7.375 -34.4375 L 13.84375 -13.9375 C 13.957031 -13.59375 14.140625 -12.945312 14.390625 -12 C 14.640625 -11.050781 14.894531 -10.046875 15.15625 -8.984375 C 15.414062 -7.921875 15.59375 -7.046875 15.6875 -6.359375 C 15.78125 -7.046875 15.945312 -7.914062 16.1875 -8.96875 C 16.4375 -10.019531 16.679688 -11.019531 16.921875 -11.96875 C 17.160156 -12.925781 17.335938 -13.582031 17.453125 -13.9375 L 23.96875 -34.4375 Z M 31.34375 -34.4375 "/></g></g></g><g fill="#2e2e2e" fill-opacity="1"><g transform="translate(200.975091, 287.999389)"><g><path d="M 25.40625 0 L 22.921875 -8.203125 L 10.359375 -8.203125 L 7.859375 0 L 0 0 L 12.15625 -34.578125 L 21.078125 -34.578125 L 33.28125 0 Z M 21.171875 -14.3125 L 18.671875 -22.328125 C 18.515625 -22.859375 18.304688 -23.539062 18.046875 -24.375 C 17.785156 -25.21875 17.523438 -26.078125 17.265625 -26.953125 C 17.015625 -27.828125 16.8125 -28.585938 16.65625 -29.234375 C 16.5 -28.585938 16.28125 -27.785156 16 -26.828125 C 15.726562 -25.878906 15.46875 -24.984375 15.21875 -24.140625 C 14.96875 -23.296875 14.785156 -22.691406 14.671875 -22.328125 L 12.203125 -14.3125 Z M 21.171875 -14.3125 "/></g></g></g><g fill="#2e2e2e" fill-opacity="1"><g transform="translate(234.737412, 287.999389)"><g><path d="M 4.328125 0 L 4.328125 -34.4375 L 11.640625 -34.4375 L 11.640625 -6.03125 L 25.59375 -6.03125 L 25.59375 0 Z M 4.328125 0 "/></g></g></g><g fill="#2e2e2e" fill-opacity="1"><g transform="translate(64.244482, 325.724651)"><g><path d="M 4.1875 -7.453125 C 4.1875 -6.710938 4.304688 -6.03125 4.546875 -5.40625 C 4.796875 -4.789062 5.132812 -4.265625 5.5625 -3.828125 C 6 -3.398438 6.523438 -3.0625 7.140625 -2.8125 C 7.765625 -2.570312 8.445312 -2.453125 9.1875 -2.453125 C 9.90625 -2.453125 10.53125 -2.5625 11.0625 -2.78125 C 11.59375 -3 12.035156 -3.242188 12.390625 -3.515625 C 12.804688 -3.828125 13.164062 -4.1875 13.46875 -4.59375 L 13.78125 -4.59375 L 13.78125 -1.625 C 13.4375 -1.257812 13.019531 -0.9375 12.53125 -0.65625 C 12.101562 -0.40625 11.582031 -0.179688 10.96875 0.015625 C 10.351562 0.210938 9.625 0.3125 8.78125 0.3125 C 7.675781 0.3125 6.648438 0.113281 5.703125 -0.28125 C 4.753906 -0.675781 3.929688 -1.21875 3.234375 -1.90625 C 2.546875 -2.601562 2.003906 -3.425781 1.609375 -4.375 C 1.210938 -5.320312 1.015625 -6.347656 1.015625 -7.453125 C 1.015625 -8.546875 1.210938 -9.566406 1.609375 -10.515625 C 2.003906 -11.460938 2.546875 -12.28125 3.234375 -12.96875 C 3.929688 -13.664062 4.753906 -14.210938 5.703125 -14.609375 C 6.648438 -15.003906 7.675781 -15.203125 8.78125 -15.203125 C 9.695312 -15.203125 10.492188 -15.09375 11.171875 -14.875 C 11.847656 -14.664062 12.410156 -14.4375 12.859375 -14.1875 C 13.390625 -13.882812 13.832031 -13.539062 14.1875 -13.15625 L 13.0625 -10.8125 C 12.832031 -11.113281 12.539062 -11.382812 12.1875 -11.625 C 11.875 -11.832031 11.472656 -12.019531 10.984375 -12.1875 C 10.503906 -12.363281 9.90625 -12.453125 9.1875 -12.453125 C 8.445312 -12.453125 7.765625 -12.328125 7.140625 -12.078125 C 6.523438 -11.835938 6 -11.5 5.5625 -11.0625 C 5.132812 -10.625 4.796875 -10.09375 4.546875 -9.46875 C 4.304688 -8.851562 4.1875 -8.179688 4.1875 -7.453125 Z M 4.1875 -7.453125 "/></g></g></g><g fill="#2e2e2e" fill-opacity="1"><g transform="translate(82.200295, 325.724651)"><g><path d="M 14.390625 0 L 11.328125 0 L 11.328125 -6.125 L 4.890625 -6.125 L 4.890625 0 L 1.84375 0 L 1.84375 -14.890625 L 4.890625 -14.890625 L 4.890625 -8.875 L 11.328125 -8.875 L 11.328125 -14.890625 L 14.390625 -14.890625 Z M 14.390625 0 "/></g></g></g><g fill="#2e2e2e" fill-opacity="1"><g transform="translate(101.278211, 325.724651)"><g><path d="M 8.0625 -10.71875 L 7.953125 -10.71875 L 5.8125 -5.921875 L 10.203125 -5.921875 Z M 4.59375 -3.15625 L 3.15625 0 L -0.109375 0 L 6.734375 -14.890625 L 9.28125 -14.890625 L 16.125 0 L 12.859375 0 L 11.421875 -3.15625 Z M 4.59375 -3.15625 "/></g></g></g><g fill="#2e2e2e" fill-opacity="1"><g transform="translate(120.152109, 325.724651)"><g><path d="M 5.921875 -15.203125 C 6.648438 -15.203125 7.289062 -15.117188 7.84375 -14.953125 C 8.40625 -14.796875 8.878906 -14.617188 9.265625 -14.421875 C 9.710938 -14.191406 10.09375 -13.941406 10.40625 -13.671875 L 9.390625 -11.21875 C 9.117188 -11.457031 8.816406 -11.660156 8.484375 -11.828125 C 8.203125 -11.984375 7.867188 -12.125 7.484375 -12.25 C 7.109375 -12.382812 6.6875 -12.453125 6.21875 -12.453125 C 5.613281 -12.453125 5.140625 -12.3125 4.796875 -12.03125 C 4.453125 -11.757812 4.28125 -11.421875 4.28125 -11.015625 C 4.28125 -10.660156 4.453125 -10.347656 4.796875 -10.078125 C 5.140625 -9.816406 5.5625 -9.5625 6.0625 -9.3125 C 6.5625 -9.0625 7.109375 -8.800781 7.703125 -8.53125 C 8.296875 -8.257812 8.84375 -7.929688 9.34375 -7.546875 C 9.84375 -7.171875 10.265625 -6.71875 10.609375 -6.1875 C 10.953125 -5.664062 11.125 -5.03125 11.125 -4.28125 C 11.125 -3.59375 10.992188 -2.960938 10.734375 -2.390625 C 10.484375 -1.828125 10.125 -1.34375 9.65625 -0.9375 C 9.1875 -0.539062 8.613281 -0.234375 7.9375 -0.015625 C 7.257812 0.203125 6.484375 0.3125 5.609375 0.3125 C 4.835938 0.3125 4.15625 0.210938 3.5625 0.015625 C 2.96875 -0.171875 2.46875 -0.378906 2.0625 -0.609375 C 1.582031 -0.867188 1.164062 -1.175781 0.8125 -1.53125 L 1.84375 -3.984375 C 2.125 -3.691406 2.445312 -3.429688 2.8125 -3.203125 C 3.125 -3.015625 3.503906 -2.84375 3.953125 -2.6875 C 4.398438 -2.53125 4.90625 -2.453125 5.46875 -2.453125 C 6.3125 -2.453125 6.9375 -2.609375 7.34375 -2.921875 C 7.75 -3.242188 7.953125 -3.664062 7.953125 -4.1875 C 7.953125 -4.59375 7.78125 -4.9375 7.4375 -5.21875 C 7.101562 -5.507812 6.679688 -5.78125 6.171875 -6.03125 C 5.671875 -6.28125 5.125 -6.539062 4.53125 -6.8125 C 3.945312 -7.082031 3.398438 -7.40625 2.890625 -7.78125 C 2.390625 -8.15625 1.96875 -8.609375 1.625 -9.140625 C 1.289062 -9.671875 1.125 -10.332031 1.125 -11.125 C 1.125 -11.675781 1.234375 -12.203125 1.453125 -12.703125 C 1.679688 -13.203125 2.003906 -13.632812 2.421875 -14 C 2.835938 -14.363281 3.335938 -14.65625 3.921875 -14.875 C 4.515625 -15.09375 5.179688 -15.203125 5.921875 -15.203125 Z M 5.921875 -15.203125 "/></g></g></g><g fill="#2e2e2e" fill-opacity="1"><g transform="translate(134.945648, 325.724651)"><g><path d="M 4.890625 0 L 1.84375 0 L 1.84375 -14.890625 L 4.890625 -14.890625 Z M 4.890625 0 "/></g></g></g><g fill="#2e2e2e" fill-opacity="1"><g transform="translate(144.536736, 325.724651)"><g><path d="M 14.796875 0 L 11.828125 0 L 4.890625 -9.796875 L 4.890625 0 L 1.84375 0 L 1.84375 -14.890625 L 4.796875 -14.890625 L 11.734375 -5.09375 L 11.734375 -14.890625 L 14.796875 -14.890625 Z M 14.796875 0 "/></g></g></g><g fill="#2e2e2e" fill-opacity="1"><g transform="translate(164.022685, 325.724651)"><g><path d="M 8.78125 -15.203125 C 9.695312 -15.203125 10.492188 -15.09375 11.171875 -14.875 C 11.859375 -14.664062 12.429688 -14.4375 12.890625 -14.1875 C 13.441406 -13.882812 13.90625 -13.539062 14.28125 -13.15625 L 13.265625 -10.8125 C 12.972656 -11.113281 12.625 -11.382812 12.21875 -11.625 C 11.863281 -11.832031 11.4375 -12.019531 10.9375 -12.1875 C 10.4375 -12.363281 9.851562 -12.453125 9.1875 -12.453125 C 8.445312 -12.453125 7.765625 -12.328125 7.140625 -12.078125 C 6.523438 -11.835938 6 -11.5 5.5625 -11.0625 C 5.132812 -10.625 4.796875 -10.09375 4.546875 -9.46875 C 4.304688 -8.851562 4.1875 -8.179688 4.1875 -7.453125 C 4.1875 -6.710938 4.304688 -6.03125 4.546875 -5.40625 C 4.796875 -4.789062 5.132812 -4.265625 5.5625 -3.828125 C 5.988281 -3.398438 6.5 -3.0625 7.09375 -2.8125 C 7.695312 -2.570312 8.359375 -2.453125 9.078125 -2.453125 C 9.609375 -2.453125 10.078125 -2.515625 10.484375 -2.640625 C 10.890625 -2.773438 11.234375 -2.914062 11.515625 -3.0625 C 11.835938 -3.238281 12.113281 -3.441406 12.34375 -3.671875 L 12.34375 -5.8125 L 8.15625 -5.8125 L 8.875 -8.578125 L 15.203125 -8.578125 L 15.203125 -2.546875 C 14.773438 -2.015625 14.25 -1.539062 13.625 -1.125 C 13.09375 -0.769531 12.425781 -0.441406 11.625 -0.140625 C 10.820312 0.160156 9.875 0.3125 8.78125 0.3125 C 7.675781 0.3125 6.648438 0.113281 5.703125 -0.28125 C 4.753906 -0.675781 3.929688 -1.21875 3.234375 -1.90625 C 2.546875 -2.601562 2.003906 -3.425781 1.609375 -4.375 C 1.210938 -5.320312 1.015625 -6.347656 1.015625 -7.453125 C 1.015625 -8.546875 1.210938 -9.566406 1.609375 -10.515625 C 2.003906 -11.460938 2.546875 -12.28125 3.234375 -12.96875 C 3.929688 -13.664062 4.753906 -14.210938 5.703125 -14.609375 C 6.648438 -15.003906 7.675781 -15.203125 8.78125 -15.203125 Z M 8.78125 -15.203125 "/></g></g></g><g fill="#2e2e2e" fill-opacity="1"><g transform="translate(183.508634, 325.724651)"><g/></g></g><g fill="#2e2e2e" fill-opacity="1"><g transform="translate(191.875605, 325.724651)"><g><path d="M 6.625 -14.890625 C 7.53125 -14.890625 8.304688 -14.789062 8.953125 -14.59375 C 9.609375 -14.40625 10.148438 -14.132812 10.578125 -13.78125 C 11.003906 -13.4375 11.316406 -13.019531 11.515625 -12.53125 C 11.722656 -12.039062 11.828125 -11.503906 11.828125 -10.921875 C 11.828125 -10.265625 11.710938 -9.742188 11.484375 -9.359375 C 11.265625 -8.972656 11.019531 -8.660156 10.75 -8.421875 C 10.4375 -8.171875 10.082031 -7.984375 9.6875 -7.859375 L 9.6875 -7.75 C 10.21875 -7.632812 10.695312 -7.425781 11.125 -7.125 C 11.476562 -6.863281 11.800781 -6.5 12.09375 -6.03125 C 12.394531 -5.570312 12.546875 -4.957031 12.546875 -4.1875 C 12.546875 -3.570312 12.4375 -3.007812 12.21875 -2.5 C 12 -1.988281 11.664062 -1.546875 11.21875 -1.171875 C 10.769531 -0.796875 10.207031 -0.503906 9.53125 -0.296875 C 8.851562 -0.0976562 8.054688 0 7.140625 0 L 1.84375 0 L 1.84375 -14.890625 Z M 4.890625 -2.65625 L 7.140625 -2.65625 C 8.640625 -2.65625 9.390625 -3.265625 9.390625 -4.484375 C 9.390625 -5.710938 8.640625 -6.328125 7.140625 -6.328125 L 4.890625 -6.328125 Z M 4.890625 -12.25 L 4.890625 -8.984375 L 6.625 -8.984375 C 7.289062 -8.984375 7.796875 -9.125 8.140625 -9.40625 C 8.492188 -9.6875 8.671875 -10.085938 8.671875 -10.609375 C 8.671875 -11.128906 8.492188 -11.53125 8.140625 -11.8125 C 7.796875 -12.101562 7.289062 -12.25 6.625 -12.25 Z M 4.890625 -12.25 "/></g></g></g><g fill="#2e2e2e" fill-opacity="1"><g transform="translate(208.301279, 325.724651)"><g><path d="M 8.0625 -10.71875 L 7.953125 -10.71875 L 5.8125 -5.921875 L 10.203125 -5.921875 Z M 4.59375 -3.15625 L 3.15625 0 L -0.109375 0 L 6.734375 -14.890625 L 9.28125 -14.890625 L 16.125 0 L 12.859375 0 L 11.421875 -3.15625 Z M 4.59375 -3.15625 "/></g></g></g><g fill="#2e2e2e" fill-opacity="1"><g transform="translate(227.175173, 325.724651)"><g><path d="M 4.890625 -2.75 L 10.921875 -2.75 L 10.921875 0 L 1.84375 0 L 1.84375 -14.890625 L 4.890625 -14.890625 Z M 4.890625 -2.75 "/></g></g></g><g fill="#2e2e2e" fill-opacity="1"><g transform="translate(241.356657, 325.724651)"><g><path d="M 8.0625 -10.71875 L 7.953125 -10.71875 L 5.8125 -5.921875 L 10.203125 -5.921875 Z M 4.59375 -3.15625 L 3.15625 0 L -0.109375 0 L 6.734375 -14.890625 L 9.28125 -14.890625 L 16.125 0 L 12.859375 0 L 11.421875 -3.15625 Z M 4.59375 -3.15625 "/></g></g></g><g fill="#2e2e2e" fill-opacity="1"><g transform="translate(260.230551, 325.724651)"><g><path d="M 14.796875 0 L 11.828125 0 L 4.890625 -9.796875 L 4.890625 0 L 1.84375 0 L 1.84375 -14.890625 L 4.796875 -14.890625 L 11.734375 -5.09375 L 11.734375 -14.890625 L 14.796875 -14.890625 Z M 14.796875 0 "/></g></g></g><g fill="#2e2e2e" fill-opacity="1"><g transform="translate(279.716493, 325.724651)"><g><path d="M 4.1875 -7.453125 C 4.1875 -6.710938 4.304688 -6.03125 4.546875 -5.40625 C 4.796875 -4.789062 5.132812 -4.265625 5.5625 -3.828125 C 6 -3.398438 6.523438 -3.0625 7.140625 -2.8125 C 7.765625 -2.570312 8.445312 -2.453125 9.1875 -2.453125 C 9.90625 -2.453125 10.53125 -2.5625 11.0625 -2.78125 C 11.59375 -3 12.035156 -3.242188 12.390625 -3.515625 C 12.804688 -3.828125 13.164062 -4.1875 13.46875 -4.59375 L 13.78125 -4.59375 L 13.78125 -1.625 C 13.4375 -1.257812 13.019531 -0.9375 12.53125 -0.65625 C 12.101562 -0.40625 11.582031 -0.179688 10.96875 0.015625 C 10.351562 0.210938 9.625 0.3125 8.78125 0.3125 C 7.675781 0.3125 6.648438 0.113281 5.703125 -0.28125 C 4.753906 -0.675781 3.929688 -1.21875 3.234375 -1.90625 C 2.546875 -2.601562 2.003906 -3.425781 1.609375 -4.375 C 1.210938 -5.320312 1.015625 -6.347656 1.015625 -7.453125 C 1.015625 -8.546875 1.210938 -9.566406 1.609375 -10.515625 C 2.003906 -11.460938 2.546875 -12.28125 3.234375 -12.96875 C 3.929688 -13.664062 4.753906 -14.210938 5.703125 -14.609375 C 6.648438 -15.003906 7.675781 -15.203125 8.78125 -15.203125 C 9.695312 -15.203125 10.492188 -15.09375 11.171875 -14.875 C 11.847656 -14.664062 12.410156 -14.4375 12.859375 -14.1875 C 13.390625 -13.882812 13.832031 -13.539062 14.1875 -13.15625 L 13.0625 -10.8125 C 12.832031 -11.113281 12.539062 -11.382812 12.1875 -11.625 C 11.875 -11.832031 11.472656 -12.019531 10.984375 -12.1875 C 10.503906 -12.363281 9.90625 -12.453125 9.1875 -12.453125 C 8.445312 -12.453125 7.765625 -12.328125 7.140625 -12.078125 C 6.523438 -11.835938 6 -11.5 5.5625 -11.0625 C 5.132812 -10.625 4.796875 -10.09375 4.546875 -9.46875 C 4.304688 -8.851562 4.1875 -8.179688 4.1875 -7.453125 Z M 4.1875 -7.453125 "/></g></g></g><g fill="#2e2e2e" fill-opacity="1"><g transform="translate(297.672301, 325.724651)"><g><path d="M 1.84375 -14.890625 L 11.734375 -14.890625 L 11.734375 -12.140625 L 4.890625 -12.140625 L 4.890625 -8.875 L 10.203125 -8.875 L 10.203125 -6.125 L 4.890625 -6.125 L 4.890625 -2.75 L 11.734375 -2.75 L 11.734375 0 L 1.84375 0 Z M 1.84375 -14.890625 "/></g></g></g></svg>